<?xml version="1.0" encoding="UTF-8"?>
<svg width="64" height="64" viewBox="0 0 64 64" fill="none" xmlns="http://www.w3.org/2000/svg">
    <path d="M32 4C16.536 4 4 16.536 4 32C4 47.464 16.536 60 32 60C47.464 60 60 47.464 60 32C60 16.536 47.464 4 32 4ZM32 56C18.745 56 8 45.255 8 32C8 18.745 18.745 8 32 8C45.255 8 56 18.745 56 32C56 45.255 45.255 56 32 56Z" fill="#00A896"/>
    <path d="M32 16C23.716 16 17 22.716 17 31C17 39.284 23.716 46 32 46C40.284 46 47 39.284 47 31C47 22.716 40.284 16 32 16ZM32 42C25.373 42 20 36.627 20 31C20 25.373 25.373 20 32 20C38.627 20 44 25.373 44 31C44 36.627 38.627 42 32 42Z" fill="#00A896"/>
    <path d="M32 24C28.686 24 25 27.686 25 31C25 34.314 28.686 38 32 38C35.314 38 39 34.314 39 31C39 27.686 35.314 24 32 24Z" fill="#00A896"/>
</svg> 