<?xml version="1.0" encoding="UTF-8"?>
<svg width="32" height="32" viewBox="0 0 32 32" fill="none" xmlns="http://www.w3.org/2000/svg">
    <path d="M28 4H4C2.897 4 2 4.897 2 6V26C2 27.103 2.897 28 4 28H28C29.103 28 30 27.103 30 26V6C30 4.897 29.103 4 28 4ZM28 26H4V6H28V26Z" fill="#2D3436"/>
    <path d="M23.707 13.707L19 18.414L15.293 14.707C14.902 14.316 14.269 14.316 13.878 14.707L8.293 20.293L9.707 21.707L14.586 16.828L18.293 20.535C18.684 20.926 19.317 20.926 19.708 20.535L25.121 15.121L23.707 13.707Z" fill="#2D3436"/>
    <path d="M25 11H21V13H25V11Z" fill="#2D3436"/>
</svg> 