<?xml version="1.0" encoding="UTF-8"?>
<svg width="32" height="32" viewBox="0 0 32 32" fill="none" xmlns="http://www.w3.org/2000/svg">
    <path d="M16 2C8.268 2 2 8.268 2 16C2 23.732 8.268 30 16 30C23.732 30 30 23.732 30 16C30 8.268 23.732 2 16 2ZM16 28C9.373 28 4 22.627 4 16C4 9.373 9.373 4 16 4C22.627 4 28 9.373 28 16C28 22.627 22.627 28 16 28Z" fill="#2D3436"/>
    <path d="M16.5 8H15.5V10.277C13.387 10.533 11.75 12.178 11.75 14.25C11.75 16.322 13.387 17.967 15.5 18.223V23H16.5V18.223C18.613 17.967 20.25 16.322 20.25 14.25C20.25 12.178 18.613 10.533 16.5 10.277V8ZM15.5 16.75C14.257 16.75 13.25 15.743 13.25 14.5C13.25 13.257 14.257 12.25 15.5 12.25V16.75ZM16.5 16.75V12.25C17.743 12.25 18.75 13.257 18.75 14.5C18.75 15.743 17.743 16.75 16.5 16.75Z" fill="#2D3436"/>
</svg> 