<?xml version="1.0" encoding="UTF-8"?>
<svg width="64" height="64" viewBox="0 0 64 64" fill="none" xmlns="http://www.w3.org/2000/svg">
    <path d="M32 4C16.536 4 4 16.536 4 32C4 47.464 16.536 60 32 60C47.464 60 60 47.464 60 32C60 16.536 47.464 4 32 4ZM32 56C18.745 56 8 45.255 8 32C8 18.745 18.745 8 32 8C45.255 8 56 18.745 56 32C56 45.255 45.255 56 32 56Z" fill="#00A896"/>
    <path d="M32 12C21.523 12 13 20.523 13 31H17C17 22.716 23.716 16 32 16V12Z" fill="#00A896"/>
    <path d="M32 20C26.477 20 22 24.477 22 30H26C26 26.686 28.686 24 32 24V20Z" fill="#00A896"/>
    <path d="M32 28C30.895 28 30 28.895 30 30H34C34 28.895 33.105 28 32 28Z" fill="#00A896"/>
</svg> 